<?xml version="1.0" standalone="no"?>
<!DOCTYPE svg PUBLIC "-//W3C//DTD SVG 20010904//EN"
 "http://www.w3.org/TR/2001/REC-SVG-20010904/DTD/svg10.dtd">
<svg version="1.0" xmlns="http://www.w3.org/2000/svg"
 width="700.000000pt" height="700.000000pt" viewBox="0 0 700.000000 700.000000"
 preserveAspectRatio="xMidYMid meet">
<metadata>
Created by potrace 1.14, written by Peter Selinger 2001-2017
</metadata>
<g transform="translate(0.000000,700.000000) scale(0.100000,-0.100000)"
fill="#000000" stroke="none">
<path d="M1621 6878 c-53 -29 -1254 -1256 -1284 -1313 -29 -55 -29 -145 1
-202 37 -70 119 -123 193 -123 73 0 102 20 254 171 l150 149 205 -208 c113
-114 223 -226 244 -249 l39 -41 -354 -361 c-376 -384 -399 -412 -399 -502 0
-64 43 -146 98 -183 55 -39 149 -48 208 -20 22 11 104 85 193 176 85 87 157
157 161 156 3 -2 628 -640 1388 -1418 784 -804 1399 -1425 1422 -1438 48 -28
127 -32 182 -9 25 10 106 85 230 212 l193 195 274 -280 c255 -262 273 -282
255 -295 -134 -98 -217 -154 -305 -205 -713 -409 -1587 -434 -2319 -66 -254
128 -438 262 -650 475 -212 213 -345 394 -466 633 -30 59 -54 110 -54 113 0 3
63 5 139 5 77 0 151 4 164 9 43 17 67 51 67 95 0 40 -5 46 -328 368 l-327 328
-45 0 -45 0 -327 -328 c-313 -312 -328 -329 -328 -365 0 -26 8 -46 29 -69 l29
-33 164 -3 163 -3 44 -112 c236 -594 654 -1113 1176 -1462 828 -552 1879 -668
2792 -309 375 147 779 407 1023 658 l45 47 317 -323 316 -323 73 72 74 73 -71
72 c-38 40 -181 187 -318 326 l-248 253 45 52 c253 298 475 710 595 1102 374
1225 -3 2546 -963 3374 -512 442 -1159 703 -1831 737 -176 9 -230 -10 -275
-98 -18 -36 -20 -55 -17 -213 l3 -173 31 -39 c46 -57 89 -74 202 -79 896 -41
1686 -549 2107 -1356 383 -735 393 -1622 25 -2358 -57 -115 -162 -291 -171
-288 -4 2 -125 123 -269 271 l-262 267 165 168 c90 92 173 183 183 202 24 48
23 143 -2 192 -10 20 -642 674 -1404 1453 -762 780 -1387 1422 -1389 1427 -2
6 64 78 147 162 163 163 191 206 192 289 0 59 -21 112 -63 155 -47 49 -84 65
-152 66 -76 1 -126 -26 -210 -115 -33 -35 -186 -193 -341 -351 l-280 -288
-244 251 -243 251 120 121 c139 141 158 167 173 231 39 176 -152 328 -309 244z
m31 -1079 c128 -132 234 -244 236 -248 1 -5 -50 -63 -114 -130 l-117 -122 -24
23 c-14 13 -124 126 -246 251 l-221 228 120 120 c65 65 122 119 125 119 4 0
112 -108 241 -241z m1560 -965 l149 -151 -191 -196 c-113 -116 -194 -208 -199
-224 -19 -69 30 -133 102 -133 39 0 45 5 236 201 l195 200 153 -153 c84 -84
153 -157 153 -162 0 -4 -85 -95 -189 -200 -116 -118 -192 -202 -196 -219 -21
-83 64 -163 136 -127 13 6 108 98 211 203 l187 192 145 -145 c80 -80 146 -148
146 -151 0 -3 -83 -91 -183 -195 -101 -104 -189 -199 -195 -211 -43 -80 50
-183 129 -143 13 7 108 98 211 204 l186 191 158 -157 157 -156 -195 -199
c-207 -210 -219 -228 -193 -289 17 -42 51 -64 100 -64 39 0 45 5 235 200 l195
201 129 -129 c71 -71 127 -134 125 -140 -4 -10 -857 -885 -868 -889 -8 -4
-2596 2645 -2596 2656 0 5 196 209 435 454 l434 445 275 -281 c151 -155 342
-350 423 -433z m2102 -2916 l255 -261 -37 -45 -37 -45 -262 269 -263 268 37
38 c20 21 40 38 44 38 4 0 122 -118 263 -262z"/>
<path d="M582 3504 c-50 -30 -82 -86 -82 -143 0 -76 35 -130 105 -162 37 -17
74 -19 500 -19 458 0 461 0 505 23 103 52 131 180 57 264 -56 64 -47 63 -569
63 l-473 0 -43 -26z"/>
</g>
</svg>
